name rise30.8019peak61.5557fall86.2505.mot
datacolumns 19
datarows 18
range 7.59497600000000 7.62330600000000
endheader
time	ground_force1_vx	ground_force1_vy	ground_force1_vz	ground_force1_px	ground_force1_py	ground_force1_pz	ground_force2_vx	ground_force2_vy	ground_force2_vz	ground_force2_px	ground_force2_py	ground_force2_pz	ground_torque1_x	ground_torque1_y	ground_torque1_z	ground_torque2_x	ground_torque2_y	ground_torque2_z	
7.59497600000000	57.89455200000000	761.57686799999999	46.69072500000000	0.26382800000000	0.00000000000000	0.09065300000000	0.00000000000000	0.00000000000000	0.00000000000000	0.00000000000000	0.00000000000000	0.00000000000000	0.00000000000000	14.55862400000000	0.00000000000000	0.00000000000000	0.00000000000000	0.00000000000000	
7.59664100000000	57.42035800000000	763.43923400000006	46.88250100000000	0.26287600000000	0.00000000000000	0.09068900000000	0.00000000000000	0.00000000000000	0.00000000000000	0.00000000000000	0.00000000000000	0.00000000000000	0.00000000000000	14.65036800000000	0.00000000000000	0.00000000000000	0.00000000000000	0.00000000000000	
7.59830600000000	56.93649900000000	765.10427500000003	47.06225400000000	0.26190200000000	0.00000000000000	0.09072500000000	0.00000000000000	0.00000000000000	0.00000000000000	0.00000000000000	0.00000000000000	0.00000000000000	0.00000000000000	14.73626900000000	0.00000000000000	0.00000000000000	0.00000000000000	0.00000000000000	
7.59997500000000	56.44329900000000	766.57222400000001	47.22941100000000	0.26090700000000	0.00000000000000	0.09076400000000	0.00000000000000	0.00000000000000	0.00000000000000	0.00000000000000	0.00000000000000	0.00000000000000	0.00000000000000	14.81605500000000	0.00000000000000	0.00000000000000	0.00000000000000	0.00000000000000	
7.60164300000000	55.94109200000000	767.84369600000002	47.38341000000000	0.25989000000000	0.00000000000000	0.09080400000000	0.00000000000000	0.00000000000000	0.00000000000000	0.00000000000000	0.00000000000000	0.00000000000000	0.00000000000000	14.88946300000000	0.00000000000000	0.00000000000000	0.00000000000000	0.00000000000000	
7.60331300000000	55.43022700000000	768.91968499999996	47.52369800000000	0.25885100000000	0.00000000000000	0.09084500000000	0.00000000000000	0.00000000000000	0.00000000000000	0.00000000000000	0.00000000000000	0.00000000000000	0.00000000000000	14.95624000000000	0.00000000000000	0.00000000000000	0.00000000000000	0.00000000000000	
7.60497200000000	54.91106900000000	769.80155900000000	47.64973500000000	0.25779100000000	0.00000000000000	0.09088700000000	0.00000000000000	0.00000000000000	0.00000000000000	0.00000000000000	0.00000000000000	0.00000000000000	0.00000000000000	15.01614800000000	0.00000000000000	0.00000000000000	0.00000000000000	0.00000000000000	
7.60665300000000	54.38400000000000	770.49106200000006	47.76100300000000	0.25670900000000	0.00000000000000	0.09093000000000	0.00000000000000	0.00000000000000	0.00000000000000	0.00000000000000	0.00000000000000	0.00000000000000	0.00000000000000	15.06896400000000	0.00000000000000	0.00000000000000	0.00000000000000	0.00000000000000	
7.60830400000000	53.84941500000000	770.99030700000003	47.85700600000000	0.25560700000000	0.00000000000000	0.09097500000000	0.00000000000000	0.00000000000000	0.00000000000000	0.00000000000000	0.00000000000000	0.00000000000000	0.00000000000000	15.11447900000000	0.00000000000000	0.00000000000000	0.00000000000000	0.00000000000000	
7.60997300000000	53.30772900000000	771.30177000000003	47.93727600000000	0.25448400000000	0.00000000000000	0.09102000000000	0.00000000000000	0.00000000000000	0.00000000000000	0.00000000000000	0.00000000000000	0.00000000000000	0.00000000000000	15.15250400000000	0.00000000000000	0.00000000000000	0.00000000000000	0.00000000000000	
7.61164200000000	52.75937400000000	771.42828399999996	48.00137400000000	0.25334100000000	0.00000000000000	0.09106600000000	0.00000000000000	0.00000000000000	0.00000000000000	0.00000000000000	0.00000000000000	0.00000000000000	0.00000000000000	15.18286900000000	0.00000000000000	0.00000000000000	0.00000000000000	0.00000000000000	
7.61330900000000	52.20479500000000	771.37302799999998	48.04889700000000	0.25217900000000	0.00000000000000	0.09111300000000	0.00000000000000	0.00000000000000	0.00000000000000	0.00000000000000	0.00000000000000	0.00000000000000	0.00000000000000	15.20542400000000	0.00000000000000	0.00000000000000	0.00000000000000	0.00000000000000	
7.61498500000000	51.64445700000000	771.13952200000006	48.07947900000000	0.25099800000000	0.00000000000000	0.09116100000000	0.00000000000000	0.00000000000000	0.00000000000000	0.00000000000000	0.00000000000000	0.00000000000000	0.00000000000000	15.22004300000000	0.00000000000000	0.00000000000000	0.00000000000000	0.00000000000000	
7.61664100000000	51.07884000000000	770.73161700000003	48.09279500000000	0.24979900000000	0.00000000000000	0.09120800000000	0.00000000000000	0.00000000000000	0.00000000000000	0.00000000000000	0.00000000000000	0.00000000000000	0.00000000000000	15.22662100000000	0.00000000000000	0.00000000000000	0.00000000000000	0.00000000000000	
7.61830300000000	50.50843800000000	770.15347899999995	48.08856400000000	0.24858300000000	0.00000000000000	0.09125700000000	0.00000000000000	0.00000000000000	0.00000000000000	0.00000000000000	0.00000000000000	0.00000000000000	0.00000000000000	15.22507800000000	0.00000000000000	0.00000000000000	0.00000000000000	0.00000000000000	
7.61997400000000	49.93376000000000	769.40958100000000	48.06655400000000	0.24735100000000	0.00000000000000	0.09130500000000	0.00000000000000	0.00000000000000	0.00000000000000	0.00000000000000	0.00000000000000	0.00000000000000	0.00000000000000	15.21536000000000	0.00000000000000	0.00000000000000	0.00000000000000	0.00000000000000	
7.62163700000000	49.35532700000000	768.50468799999999	48.02658000000000	0.24610300000000	0.00000000000000	0.09135300000000	0.00000000000000	0.00000000000000	0.00000000000000	0.00000000000000	0.00000000000000	0.00000000000000	0.00000000000000	15.19743700000000	0.00000000000000	0.00000000000000	0.00000000000000	0.00000000000000	
7.62330600000000	48.77367300000000	767.44384400000001	47.96850900000000	0.24484100000000	0.00000000000000	0.09140100000000	0.00000000000000	0.00000000000000	0.00000000000000	0.00000000000000	0.00000000000000	0.00000000000000	0.00000000000000	15.17130500000000	0.00000000000000	0.00000000000000	0.00000000000000	0.00000000000000	
